<svg id="visual" viewBox="0 0 1920 1080" width="1920" height="1080" xmlns="http://www.w3.org/2000/svg" xmlns:xlink="http://www.w3.org/1999/xlink" version="1.1"><rect x="0" y="0" width="1920" height="1080" fill="#ffffff"></rect><defs><linearGradient id="grad1_0" x1="43.8%" y1="0%" x2="100%" y2="100%"><stop offset="14.444444444444446%" stop-color="#ffffff" stop-opacity="1"></stop><stop offset="85.55555555555554%" stop-color="#ffffff" stop-opacity="1"></stop></linearGradient></defs><defs><linearGradient id="grad2_0" x1="0%" y1="0%" x2="56.3%" y2="100%"><stop offset="14.444444444444446%" stop-color="#ffffff" stop-opacity="1"></stop><stop offset="85.55555555555554%" stop-color="#ffffff" stop-opacity="1"></stop></linearGradient></defs><g transform="translate(1920, 0)"><path d="M0 594C-57.3 592.5 -114.7 591 -148 552.5C-181.4 514 -190.8 438.5 -243.5 421.8C-296.2 405 -392 447.1 -420 420C-448 392.9 -408.1 296.7 -420 242.5C-431.9 188.3 -495.6 176.3 -533.2 142.9C-570.8 109.5 -582.4 54.7 -594 0L0 0Z" fill="#2978a7"></path></g><g transform="translate(0, 1080)"><path d="M0 -594C50.9 -583.3 101.7 -572.6 149.9 -559.3C198 -545.9 243.3 -529.9 295 -511C346.7 -492 404.7 -470.2 420 -420C435.4 -369.9 408.1 -291.3 420 -242.5C432 -193.7 483.2 -174.5 518.7 -139C554.2 -103.5 574.1 -51.8 594 0L0 0Z" fill="#2978a7"></path></g></svg>